<svg xmlns="http://www.w3.org/2000/svg" xmlns:xlink="http://www.w3.org/1999/xlink" width="110" height="110" viewBox="0 0 110 110">
  <defs>
    <linearGradient id="linear-gradient" x1="0.5" y1="1" x2="0.5" gradientUnits="objectBoundingBox">
      <stop offset="0" stop-color="#2fc145"/>
      <stop offset="1" stop-color="#b4ff4e"/>
    </linearGradient>
    <filter id="Ellipse_6" x="0" y="0" width="110" height="110" filterUnits="userSpaceOnUse">
      <feOffset dy="8" input="SourceAlpha"/>
      <feGaussianBlur stdDeviation="7.5" result="blur"/>
      <feFlood flood-color="#26d555" flood-opacity="0.341"/>
      <feComposite operator="in" in2="blur"/>
      <feComposite in="SourceGraphic"/>
    </filter>
    <linearGradient id="linear-gradient-2" x1="0.5" x2="0.5" y2="1" gradientUnits="objectBoundingBox">
      <stop offset="0" stop-color="#fdf9f9"/>
      <stop offset="1" stop-color="#92e396"/>
    </linearGradient>
  </defs>
  <g id="Group_172" data-name="Group 172" transform="translate(-292.5 -424.5)">
    <g id="Shoes" transform="translate(290 60)">
      <g id="icon" transform="translate(-173 239)">
        <g transform="matrix(1, 0, 0, 1, 175.5, 125.5)" filter="url(#Ellipse_6)">
          <circle id="Ellipse_6-2" data-name="Ellipse 6" cx="32.5" cy="32.5" r="32.5" transform="translate(22.5 14.5)" fill="url(#linear-gradient)"/>
        </g>
      </g>
    </g>
    <g id="hair-brush-fashion-svgrepo-com" transform="translate(164.585 452.989)">
      <g id="Group_160" data-name="Group 160" transform="translate(169.415 0)">
        <path id="Path_176" data-name="Path 176" d="M195.873,7.482c.836,0,1.392-.271,1.392-.678s-.557-.678-1.392-.678H190.3V4.771h5.57c.836,0,1.392-.271,1.392-.678s-.557-.678-1.392-.678h-5.71a2.55,2.55,0,0,0-.6-.837l5.473-1.331c.557-.136.836-.542.557-.881A2.447,2.447,0,0,0,193.784.1l-5.57,1.355a1.3,1.3,0,0,0-.282.1,12.85,12.85,0,0,0-9.224.017,1.668,1.668,0,0,0-.381-.119L172.757.1a2.11,2.11,0,0,0-1.81.271c-.279.339,0,.745.7.949l5.417,1.318a2.5,2.5,0,0,0-.542.783h-5.71c-.836,0-1.393.271-1.393.678s.557.678,1.393.678h5.57V6.127h-5.57c-.836,0-1.393.271-1.393.678s.557.678,1.393.678h5.57V8.837h-5.57c-.836,0-1.393.271-1.393.678s.557.678,1.393.678h5.57v1.355h-5.57c-.836,0-1.393.271-1.393.678s.557.678,1.393.678h5.57v1.355h-5.57c-.836,0-1.393.271-1.393.678s.557.678,1.393.678h5.574a1.88,1.88,0,0,0,.25.853L171.5,17.714c-.557.136-.836.542-.557.881A1.732,1.732,0,0,0,172.2,19a1.1,1.1,0,0,0,.557-.136l5.067-1.233a6.925,6.925,0,0,0,1.339.639V20.9H177.77l-2.507,15.585c-.139,1.084.7,2.1,2.228,2.914a12.807,12.807,0,0,0,5.849,1.22,10.216,10.216,0,0,0,5.57-1.287c1.532-.813,2.367-1.83,2.228-2.914L188.632,20.9h-1.114V18.277a7.151,7.151,0,0,0,1.275-.591l5.131,1.248a1.228,1.228,0,0,0,.557.068,2.75,2.75,0,0,0,1.253-.339c.418-.339.139-.745-.557-.881l-5.142-1.251a1.78,1.78,0,0,0,.268-.917h5.57c.836,0,1.393-.271,1.393-.678s-.557-.678-1.393-.678H190.3V12.9h5.57c.836,0,1.393-.271,1.393-.678s-.557-.678-1.393-.678H190.3V10.192h5.57c.836,0,1.393-.271,1.393-.678s-.557-.678-1.393-.678H190.3V7.482ZM183.34,2.061c1.875,0,3.4.553,3.953,1.355H179.4C179.986,2.614,181.575,2.061,183.34,2.061Zm-4.178,2.711h8.355V6.127h-8.355ZM187.1,38.449a8.07,8.07,0,0,1-3.76.813,9.1,9.1,0,0,1-3.9-.813,2.1,2.1,0,0,1-1.392-1.83l2.367-14.3h5.721l2.356,14.23C188.632,37.3,188.075,37.907,187.1,38.449Zm-2.367-19.516V20.9h-2.785V18.934Zm-.334-1.355h-2.086c-1.767-.235-3.151-1.052-3.151-1.965h8.355C187.518,16.578,186.151,17.352,184.4,17.579Zm3.119-3.32h-8.355V12.9h8.355Zm0-2.71h-8.355V10.192h8.355Zm0-2.71h-8.355V7.482h8.355Z" transform="translate(-169.415 0)" fill="url(#linear-gradient-2)"/>
      </g>
    </g>
  </g>
</svg>
