<svg xmlns="http://www.w3.org/2000/svg" xmlns:xlink="http://www.w3.org/1999/xlink" width="110" height="110" viewBox="0 0 110 110">
  <defs>
    <linearGradient id="linear-gradient" x1="0.5" y1="1" x2="0.5" gradientUnits="objectBoundingBox">
      <stop offset="0" stop-color="#ff7676"/>
      <stop offset="1" stop-color="#ffae4e"/>
    </linearGradient>
    <filter id="Ellipse_1" x="0" y="0" width="110" height="110" filterUnits="userSpaceOnUse">
      <feOffset dy="8" input="SourceAlpha"/>
      <feGaussianBlur stdDeviation="7.5" result="blur"/>
      <feFlood flood-color="#ff6262" flood-opacity="0.341"/>
      <feComposite operator="in" in2="blur"/>
      <feComposite in="SourceGraphic"/>
    </filter>
    <linearGradient id="linear-gradient-2" x1="0.5" x2="0.5" y2="1" gradientUnits="objectBoundingBox">
      <stop offset="0" stop-color="#fdfafa"/>
      <stop offset="1" stop-color="#e9b9b9"/>
    </linearGradient>
  </defs>
  <g id="Group_163" data-name="Group 163" transform="translate(-11.5 -15.5)">
    <g transform="matrix(1, 0, 0, 1, 11.5, 15.5)" filter="url(#Ellipse_1)">
      <circle id="Ellipse_1-2" data-name="Ellipse 1" cx="32.5" cy="32.5" r="32.5" transform="translate(22.5 14.5)" fill="url(#linear-gradient)"/>
    </g>
    <g id="groceries-svgrepo-com" transform="translate(43.09 47)" style="isolation: isolate">
      <path id="Path_152" data-name="Path 152" d="M36.272,25.308a1,1,0,0,0,1.268-.626,1.764,1.764,0,0,1,2.232-1.1A3.765,3.765,0,0,0,44.54,21.23a1,1,0,1,0-1.894-.643,1.761,1.761,0,0,1-2.232,1.1,3.77,3.77,0,0,0-4.768,2.352A1,1,0,0,0,36.272,25.308Z" transform="translate(-10.705 -8.729)" fill="url(#linear-gradient-2)"/>
      <path id="Path_153" data-name="Path 153" d="M38.638,18.34a1,1,0,0,0,1.268-.626,1.758,1.758,0,0,1,2.232-1.1,3.765,3.765,0,0,0,4.768-2.353,1,1,0,1,0-1.893-.643,1.76,1.76,0,0,1-2.232,1.1,3.758,3.758,0,0,0-4.768,2.352A1,1,0,0,0,38.638,18.34Z" transform="translate(-10.705 -5.673)" fill="url(#linear-gradient-2)"/>
      <path id="Path_154" data-name="Path 154" d="M41,11.372a1,1,0,0,0,1.269-.626,1.3,1.3,0,0,1,1.648-.813A3.3,3.3,0,0,0,48.1,7.87a1,1,0,1,0-1.894-.643,1.3,1.3,0,0,1-1.649.811A3.308,3.308,0,0,0,40.377,10.1,1,1,0,0,0,41,11.372Z" transform="translate(-10.705)" fill="url(#linear-gradient-2)"/>
      <path id="Path_155" data-name="Path 155" d="M38.175,15.231a1.162,1.162,0,0,0-.434-.129A34.584,34.584,0,0,0,40.2,3.75,3.834,3.834,0,0,0,38.113.372,3.832,3.832,0,0,0,34.859.345c-2.276.93-3.9,3.666-5.212,5.866l-.223.373a3.769,3.769,0,0,0-2.415-2.422,3.348,3.348,0,0,0-2.826-2.226,1.555,1.555,0,0,0-.058-.187A2.536,2.536,0,0,0,21.947.277a3.168,3.168,0,0,0-1.62.264A3.346,3.346,0,0,0,18.98.263,2.752,2.752,0,0,0,16.25,1.974a2.918,2.918,0,0,0-2.523,2.59,3.242,3.242,0,0,0-2.857,2.928,2.48,2.48,0,0,0,.258,1.091,2.089,2.089,0,0,0-.667,1.5,1.942,1.942,0,0,0,.248.944A4.52,4.52,0,0,0,7.674,9.862a.686.686,0,0,0-.738.622.7.7,0,0,0,.761.585c.026,0,.05,0,.074,0a2.889,2.889,0,0,1,1.861.809c-1.209.276-2.666.725-3.346,1.74A2.5,2.5,0,0,0,6.1,15.842a.884.884,0,0,0-.191.593l1.3,14.6c.118,1.831,2.023,3.264,4.337,3.264H32.939c2.314,0,4.219-1.434,4.336-3.253l1.33-15.107s0-.007,0-.011A.741.741,0,0,0,38.175,15.231ZM30.046,8.31c.3-.446.631-1,.979-1.585C32.171,4.8,33.741,2.16,35.557,1.417A2.039,2.039,0,0,1,37.3,1.394a2.727,2.727,0,0,1,1.378,2.324,33.669,33.669,0,0,1-2.447,11.163c-.05.126-.159.381-.316.73l-1.3.457a.787.787,0,0,0-.082.034,2.875,2.875,0,0,1-2.432,0l-.543-.258a4.74,4.74,0,0,0-2.026-.445h-.026a4.736,4.736,0,0,0-2.052.444l-.543.258a2.86,2.86,0,0,1-.976.244c.019-.053.041-.1.061-.156.209-.562.433-1.116.668-1.666.089-.209.182-.416.275-.624q.294-.655.613-1.3c.095-.191.187-.384.284-.574A37.079,37.079,0,0,1,30.046,8.31ZM20.331,9.742c.089-.091.176-.179.258-.264a0,0,0,0,1,0,0,1.5,1.5,0,0,0,.157-.195,1.058,1.058,0,0,0,.145-.9l3.181-.551a1.167,1.167,0,0,0,.081.225,1.518,1.518,0,0,0,.751.667c.116.051.237.1.362.154.1.043.206.088.309.132l.149.064c.091.04.178.085.267.129s.15.075.223.115.165.1.246.15.139.1.206.147.144.113.21.176a2.15,2.15,0,0,1,.322.365c-.323.565-.627,1.141-.921,1.723-.046.09-.095.177-.139.267A8.747,8.747,0,0,0,23.5,13.187a5.394,5.394,0,0,1-3.732.718l-.463-1.677C18.993,11.093,19.673,10.406,20.331,9.742ZM24.11,6.076a.4.4,0,0,1,.059,0,.314.314,0,0,1,.31.2.206.206,0,0,1-.044.188.317.317,0,0,1-.2.109l-4.21.73a.328.328,0,0,1-.375-.191.259.259,0,0,1,.241-.3l2.237-.388Zm-2.463,9.336c-.058,0-.117,0-.175.009a4.746,4.746,0,0,0-1.215.255l-.146-.528c.219.014.438.029.643.029a6.938,6.938,0,0,0,3.629-1.006,10,10,0,0,1,1.056-.521c-.07.158-.139.314-.207.473-.049.113-.1.225-.149.339-.224.537-.437,1.079-.636,1.625l-.507-.24a4.74,4.74,0,0,0-2.026-.445h-.028C21.807,15.4,21.727,15.408,21.647,15.412ZM12.531,9.17l.5-.326L12.707,8.4a1.54,1.54,0,0,1-.31-.909,2.072,2.072,0,0,1,2.2-1.816l.925-.031-.216-.713a1.2,1.2,0,0,1-.055-.349A1.7,1.7,0,0,1,17,3.092l.7-.042v-.6A1.182,1.182,0,0,1,18.98,1.47a1.446,1.446,0,0,1,.851.264l.534.382.512-.4a1.263,1.263,0,0,1,.889-.239,1.057,1.057,0,0,1,.9.614.631.631,0,0,1,.036.321l-.089.674h.858a1.958,1.958,0,0,1,2.087,1.543l.034.4.473.132A2.392,2.392,0,0,1,28.011,7.38a1.9,1.9,0,0,1-.5,1.2,8.59,8.59,0,0,0-1.521-.767c-.12-.05-.235-.1-.352-.15a.137.137,0,0,1-.086-.1.3.3,0,0,1,.106-.268,1.109,1.109,0,0,0,.358-1.115l-.092-.333a1.324,1.324,0,0,0-.711-.808,1.97,1.97,0,0,0-1.222-.174l-.2.036h-.007l-2.237.388-2.183.377a1.659,1.659,0,0,0-1.02.563,1.061,1.061,0,0,0-.22.969l.046.164v0s0,0,0,0l.045.164a1.4,1.4,0,0,0,.943.9.428.428,0,0,1,.252.195c.02.045.008.068-.036.126h0c-.075.08-.157.162-.24.246s-.171.173-.259.265c-.03.031-.058.063-.088.094-.063.068-.127.138-.189.21-.034.039-.067.08-.1.121-.058.071-.114.144-.168.219-.032.043-.063.086-.094.132-.057.085-.109.173-.16.264-.022.039-.046.075-.066.116a2.875,2.875,0,0,0-.174.414c-.008.023-.011.048-.018.071a2.679,2.679,0,0,0-.085.383c-.008.053-.009.109-.014.164-.006.071-.018.139-.018.213l-.009-.009-.031-.031c-.133-.138-.265-.266-.4-.386-.042-.038-.085-.075-.127-.111q-.168-.144-.337-.27c-.037-.027-.073-.057-.111-.083-.143-.1-.286-.193-.43-.275-.04-.023-.082-.042-.122-.064-.108-.057-.216-.11-.326-.158-.053-.023-.106-.045-.16-.066-.114-.044-.228-.081-.343-.114-.038-.011-.076-.025-.114-.035q-.187-.047-.377-.075c-.014,0-.029,0-.043,0s-.051-.011-.077-.014c-.088-.01-.172-.006-.259-.011-.061,0-.121-.013-.182-.013-.018,0-.037,0-.056,0-.118,0-.232.012-.348.024-.057.006-.114.01-.171.018a4.356,4.356,0,0,0-.44.088l-.066.016a5.377,5.377,0,0,0-1.076.421.945.945,0,0,1-.106-.432A1.1,1.1,0,0,1,12.531,9.17Zm-4.9,5.012A4.026,4.026,0,0,1,10.1,13.026a4.473,4.473,0,0,0,1.7-.774c.217-.165.421-.3.617-.431a3.793,3.793,0,0,1,1.623-.659l.032,0a1.95,1.95,0,0,1,.441.01c.037.005.075.016.114.024a1.923,1.923,0,0,1,.212.05c.046.014.091.035.138.052.066.025.132.048.2.08s.1.057.155.085.123.066.186.106.116.081.174.123.116.08.174.126.129.111.194.168.105.089.159.139c.072.069.146.147.219.223.046.048.092.092.139.143.083.092.167.194.251.3.037.045.074.085.111.13q.182.227.366.484a3.749,3.749,0,0,1,.5,2.951c-.04,0-.08-.008-.12-.013a2.793,2.793,0,0,1-.825-.234l-.543-.258a4.74,4.74,0,0,0-2.026-.445h-.026a4.736,4.736,0,0,0-2.052.444l-.264.126a3.518,3.518,0,0,1-2.989,0l-1.025-.488h0a1.531,1.531,0,0,0-.43-.129A1.409,1.409,0,0,1,7.635,14.182ZM35.758,30.973a2.617,2.617,0,0,1-2.815,2.119H11.548a2.616,2.616,0,0,1-2.816-2.13L7.464,16.691l.663.315a5.622,5.622,0,0,0,4.661,0l.264-.126a2.869,2.869,0,0,1,2.432,0l.543.258a4.757,4.757,0,0,0,2.236.433c.069,0,.137,0,.207-.007.008,0,.016,0,.025,0a4.668,4.668,0,0,0,1.5-.389.868.868,0,0,0,.133-.033l.543-.258a2.869,2.869,0,0,1,2.432,0l.543.258a4.725,4.725,0,0,0,1.864.436l.04,0a4.907,4.907,0,0,0,.666-.025c.127-.013.249-.038.373-.06.06-.011.12-.022.18-.036a4.535,4.535,0,0,0,.979-.318h0l.543-.258a2.869,2.869,0,0,1,2.432,0l.543.258a4.744,4.744,0,0,0,2.042.443l.035,0a4.752,4.752,0,0,0,1.984-.425l1.5-.526a.838.838,0,0,0,.085-.048l.117-.041Z" transform="translate(0 0)" fill="url(#linear-gradient-2)"/>
      <path id="Path_156" data-name="Path 156" d="M11.911,43h7a1,1,0,1,0,0-2h-7a1,1,0,1,0,0,2Z" transform="translate(0 -16.847)" fill="url(#linear-gradient-2)"/>
      <path id="Path_157" data-name="Path 157" d="M11.911,47h9a1,1,0,1,0,0-2h-9a1,1,0,1,0,0,2Z" transform="translate(0 -18.49)" fill="url(#linear-gradient-2)"/>
      <path id="Path_158" data-name="Path 158" d="M22.911,49h-11a1,1,0,0,0,0,2h11a1,1,0,1,0,0-2Z" transform="translate(0 -22.525)" fill="url(#linear-gradient-2)"/>
      <path id="Path_159" data-name="Path 159" d="M28.911,49h-2a1,1,0,0,0,0,2h2a1,1,0,1,0,0-2Z" transform="translate(-5.222 -22.525)" fill="url(#linear-gradient-2)"/>
    </g>
  </g>
</svg>
