<svg xmlns="http://www.w3.org/2000/svg" xmlns:xlink="http://www.w3.org/1999/xlink" width="110" height="110" viewBox="0 0 110 110">
  <defs>
    <linearGradient id="linear-gradient" x1="0.5" y1="1" x2="0.5" gradientUnits="objectBoundingBox">
      <stop offset="0" stop-color="#2fc145"/>
      <stop offset="1" stop-color="#b4ff4e"/>
    </linearGradient>
    <filter id="Ellipse_6" x="0" y="0" width="110" height="110" filterUnits="userSpaceOnUse">
      <feOffset dy="8" input="SourceAlpha"/>
      <feGaussianBlur stdDeviation="7.5" result="blur"/>
      <feFlood flood-color="#26d555" flood-opacity="0.341"/>
      <feComposite operator="in" in2="blur"/>
      <feComposite in="SourceGraphic"/>
    </filter>
    <linearGradient id="linear-gradient-2" x1="0.5" x2="0.5" y2="1" gradientUnits="objectBoundingBox">
      <stop offset="0" stop-color="#f7f6f6"/>
      <stop offset="1" stop-color="#b4f9b2"/>
    </linearGradient>
  </defs>
  <g id="Group_166" data-name="Group 166" transform="translate(-292.5 -162.5)">
    <g id="Shoes" transform="translate(290 -202)">
      <g id="icon" transform="translate(-173 239)">
        <g transform="matrix(1, 0, 0, 1, 175.5, 125.5)" filter="url(#Ellipse_6)">
          <circle id="Ellipse_6-2" data-name="Ellipse 6" cx="32.5" cy="32.5" r="32.5" transform="translate(22.5 14.5)" fill="url(#linear-gradient)"/>
        </g>
      </g>
    </g>
    <g id="baby-bottle-outline-svgrepo-com" transform="translate(217.226 119)">
      <path id="Path_161" data-name="Path 161" d="M128.323,90.4c0-2.5-2.495-4.532-5.561-4.532H112.335c-3.066,0-5.561,2.033-5.561,4.532a1.183,1.183,0,0,0,1.283,1.046,1.54,1.54,0,0,0,.293-.03,6.451,6.451,0,0,0-1.576,3.865v17.9c0,2.5,2.495,4.532,5.561,4.532h10.428c3.066,0,5.561-2.033,5.561-4.532v-17.9a6.45,6.45,0,0,0-1.577-3.865,1.569,1.569,0,0,0,.294.03A1.183,1.183,0,0,0,128.323,90.4Zm-2.566,22.776a2.764,2.764,0,0,1-2.994,2.44H112.335a2.763,2.763,0,0,1-2.994-2.44v-3.312h1.711v1.622c0,1.633,1.63,2.961,3.632,2.961h5.728c2,0,3.634-1.328,3.634-2.961V96.15H111.051v4.708H109.34V95.279c0-1.549,1.577-3.835,2.994-3.835h10.428c1.417,0,2.994,2.285,2.994,3.835Zm-12.139-10.226h3.013a1.068,1.068,0,1,0,0-2.092h-3.013V98.242h7.861v13.243a.985.985,0,0,1-1.068.869h-5.728a.984.984,0,0,1-1.066-.869v-1.622h3.013a1.068,1.068,0,1,0,0-2.092h-3.013Zm-2.566,4.822H109.34v-4.822h1.711Zm11.711-18.418H112.335a4.847,4.847,0,0,0-3,1.111c0-.022.009-.043.009-.065a2.763,2.763,0,0,1,2.994-2.44h10.428a2.763,2.763,0,0,1,2.994,2.44c0,.022.007.044.008.065A4.846,4.846,0,0,0,122.762,89.353Z" transform="translate(13 -6)" fill="url(#linear-gradient-2)"/>
      <path id="Path_162" data-name="Path 162" d="M132.858,0c-1.394,0-2.529,1.78-2.529,3.967V8.381h-1.692c-.453,0-.82.576-.82,1.287s.367,1.287.82,1.287h8.443c.453,0,.82-.576.82-1.287s-.367-1.287-.82-1.287h-1.693V3.967C135.388,1.78,134.253,0,132.858,0Zm-.889,8.381V3.967c0-.769.4-1.394.889-1.394s.889.625.889,1.394V8.381H131.97Z" transform="translate(-2.28 68.677)" fill="url(#linear-gradient-2)"/>
    </g>
  </g>
</svg>
