<svg id="cake-24px" xmlns="http://www.w3.org/2000/svg" xmlns:xlink="http://www.w3.org/1999/xlink" width="42.153" height="37.152" viewBox="0 0 42.153 37.152">
  <defs>
    <linearGradient id="linear-gradient" x1="0.5" x2="0.5" y2="1" gradientUnits="objectBoundingBox">
      <stop offset="0" stop-color="#0082ff"/>
      <stop offset="1" stop-color="#a3d3ff"/>
    </linearGradient>
  </defs>
  <path id="Path_178" data-name="Path 178" d="M0,0H42.153V37.152H0Z" fill="none"/>
  <path id="Path_179" data-name="Path 179" d="M21.076,9.587c2.229,0,4.017-1.438,4.017-3.2a2.6,2.6,0,0,0-.582-1.646L21.076,0,17.642,4.746a2.6,2.6,0,0,0-.582,1.646C17.059,8.149,18.867,9.587,21.076,9.587Zm9.239,15.962-2.149-1.71L26,25.549a8.492,8.492,0,0,1-9.822,0l-2.149-1.71-2.189,1.71a7.887,7.887,0,0,1-4.9,1.614A8.282,8.282,0,0,1,3,26.188v7.366a1.844,1.844,0,0,0,2.008,1.6H37.144a1.844,1.844,0,0,0,2.008-1.6V26.188a8.282,8.282,0,0,1-3.937.975A7.887,7.887,0,0,1,30.315,25.549ZM33.127,14.38H23.085v-3.2H19.068v3.2H9.025C5.691,14.38,3,16.521,3,19.174v2.461c0,1.726,1.767,3.132,3.937,3.132a4.406,4.406,0,0,0,2.772-.911l4.3-3.4,4.278,3.4a4.806,4.806,0,0,0,5.564,0l4.3-3.4,4.278,3.4a4.447,4.447,0,0,0,2.772.911c2.169,0,3.937-1.406,3.937-3.132V19.174C39.153,16.521,36.461,14.38,33.127,14.38Z" transform="translate(0)" fill="url(#linear-gradient)"/>
</svg>
