<?xml version="1.0" encoding="iso-8859-1"?>
<!-- Generator: Adobe Illustrator 19.0.0, SVG Export Plug-In . SVG Version: 6.00 Build 0)  -->
<svg version="1.1" id="Layer_1" xmlns="http://www.w3.org/2000/svg" xmlns:xlink="http://www.w3.org/1999/xlink" x="0px" y="0px"
	 viewBox="0 0 190.932 190.932" style="enable-background:new 0 0 190.932 190.932;" xml:space="preserve">
<g>
	<g>
		<g>
			<path d="M175.346,54.552c-2.152,0-3.897,1.743-3.897,3.897v98.593c0,14.392-11.694,26.096-26.066,26.096H33.86
				c-14.372,0-26.066-11.694-26.066-26.066V45.549c0-14.372,11.707-26.066,26.098-26.066h98.591c2.152,0,3.897-1.743,3.897-3.897
				s-1.745-3.897-3.897-3.897H33.891C15.204,11.69,0.001,26.88,0.001,45.549v111.524c0,18.668,15.188,33.859,33.859,33.859h111.524
				c18.67,0,33.859-15.202,33.859-33.889V58.448C179.242,56.295,177.498,54.552,175.346,54.552z"/>
			<path d="M165.604,0c-13.965,0-25.328,11.362-25.328,25.328s11.362,25.328,25.328,25.328s25.328-11.362,25.328-25.328
				S179.57,0,165.604,0z M165.604,42.862c-9.669,0-17.534-7.866-17.534-17.534c0-9.668,7.866-17.534,17.534-17.534
				c9.669,0,17.534,7.866,17.534,17.534C183.138,34.996,175.273,42.862,165.604,42.862z"/>
		</g>
	</g>
</g>
<g>
</g>
<g>
</g>
<g>
</g>
<g>
</g>
<g>
</g>
<g>
</g>
<g>
</g>
<g>
</g>
<g>
</g>
<g>
</g>
<g>
</g>
<g>
</g>
<g>
</g>
<g>
</g>
<g>
</g>
</svg>
