<?xml version="1.0" encoding="utf-8"?>
<!-- Svg Vector Icons : http://www.onlinewebfonts.com/icon -->
<!DOCTYPE svg PUBLIC "-//W3C//DTD SVG 1.1//EN" "http://www.w3.org/Graphics/SVG/1.1/DTD/svg11.dtd">
<svg version="1.1" xmlns="http://www.w3.org/2000/svg" xmlns:xlink="http://www.w3.org/1999/xlink" x="0px" y="0px" viewBox="0 0 1000 1000" enable-background="new 0 0 1000 1000" xml:space="preserve">
<metadata> Svg Vector Icons : http://www.onlinewebfonts.com/icon </metadata>
<g><g transform="translate(0.000000,511.000000) scale(0.100000,-0.100000)"><path d="M863.4,5053.4c-159.8-40.6-388-177.5-499.6-296.7c-55.8-60.9-139.5-187.7-182.6-281.5c-73.6-154.7-81.2-192.7-81.2-413.4c0-228.3,5.1-251.1,93.8-433.7c114.1-230.8,261.2-372.8,497.1-484.4c154.7-73.6,192.8-81.2,410.9-81.2s256.2,7.6,410.9,81.2c235.9,111.6,382.9,253.6,497.1,484.4c88.8,182.6,93.8,205.4,93.8,436.2s-5.1,253.6-93.8,436.2c-172.5,344.9-476.8,550.3-852.1,568.1C1051.1,5073.7,919.2,5066.1,863.4,5053.4z M1373.1,4612.1c195.3-98.9,337.3-332.2,337.3-547.8c0-408.3-423.5-707.6-809-570.6c-535.1,187.7-540.2,946-5.1,1146.3C1010.5,4683.1,1266.6,4667.9,1373.1,4612.1z"/><path d="M4718.3,5053.4c-159.8-40.6-388-177.5-499.6-296.7c-55.8-60.9-139.5-187.7-182.6-281.5c-73.6-154.7-81.2-192.7-81.2-413.4c0-228.3,5.1-251.1,93.8-433.7c114.1-230.8,261.2-372.8,497.1-484.4c154.7-73.6,192.7-81.2,410.9-81.2c205.4,0,261.2,10.1,383,65.9l139.5,65.9l1217.4-1278.2c667-702.5,1235.1-1306.1,1263-1339.1c45.6-58.3,45.6-60.9-2.5-131.9c-43.1-63.4-109.1-197.8-109.1-220.6c0-5.1,81.2,12.7,182.6,38c98.9,27.9,208,48.2,238.4,48.2c30.4,0,114.1,40.6,185.2,88.8c149.6,98.9,256.1,124.3,436.2,109.1c459.1-45.6,692.4-626.4,390.6-976.4l-83.7-96.4l86.2-169.9c48.2-96.4,98.9-172.5,116.7-172.5c15.2,0,78.6,50.7,139.5,114.1c289.1,301.8,362.7,743.1,187.7,1115.9c-225.7,486.9-745.6,707.6-1252.8,535.1l-169.9-58.3l-1263,1331.5L5781,3463.3l81.2,164.9c45.7,88.8,83.7,180.1,83.7,197.8c0,30.4,157.2,35.5,938.4,35.5c776.1,0,938.4-5.1,938.4-35.5c0-17.8,40.6-114.1,88.8-210.5c109-218.1,261.2-365.2,489.5-471.7c154.7-73.6,192.8-81.2,410.9-81.2s256.1,7.6,410.9,81.2c235.9,111.6,382.9,253.6,497.1,484.4c88.8,182.6,93.8,205.4,93.8,436.2s-5.1,253.6-93.8,436.2c-114.1,230.8-261.2,372.8-497.1,484.4c-154.7,73.6-192.8,81.2-410.9,81.2s-256.1-7.6-410.9-81.2c-228.3-106.5-380.4-253.6-489.5-471.7c-48.2-96.4-88.8-192.8-88.8-210.5c0-30.4-162.3-35.5-938.4-35.5c-776,0-938.4,5.1-938.4,35.5c0,17.8-40.6,114.1-88.8,210.5c-167.4,334.8-476.8,537.7-844.5,555.4C4906,5073.7,4774.1,5066.1,4718.3,5053.4z M5146.9,4645.1c137-38,352.5-253.6,390.6-390.6c134.4-484.4-286.6-905.4-771-771c-136.9,38-352.5,253.6-390.6,390.6C4239,4368.7,4652.4,4782.1,5146.9,4645.1z M9083.1,4614.7c98.9-53.3,225.7-177.5,276.4-276.5c55.8-106.5,71-317,35.5-448.9c-40.6-149.6-220.6-342.4-372.8-393.1c-286.6-96.4-555.4-7.6-722.8,240.9c-210.5,314.5-58.3,765.9,306.9,902.9C8720.4,4683.1,8976.5,4667.9,9083.1,4614.7z"/><path d="M784.8,868.8C508.3,780,252.2,531.5,148.2,252.5C112.7,158.7,100,57.2,100-107.6c0-192.8,12.7-251.1,68.5-372.8c131.9-284.1,314.5-459,580.8-555.4l149.6-55.8V-1855v-763.4L767-2666.6c-268.8-93.8-456.5-268.8-588.4-547.8c-71-147.1-78.6-187.7-78.6-405.8s7.6-256.1,81.2-410.9C488-4680.3,1314.8-4830,1817-4327.8c71,71,159.8,197.8,205.4,296.7c73.6,154.7,81.2,192.8,81.2,410.9s-7.6,256.1-81.2,410.9c-106.5,228.3-253.6,380.4-471.7,489.5c-96.4,48.2-192.7,88.8-210.5,88.8c-30.4,0-35.5,136.9-35.5,771v771l116.7,40.6c311.9,106.5,583.3,388.1,654.3,682.2l15.2,68.5h933.3h930.8l43.1-121.7c129.3-362.7,443.8-618.8,839.5-677.2c137-20.3,347.5,5.1,347.5,40.6c0,15.2-30.4,98.9-68.5,185.1l-71,162.3L4916.1-696c-352.5,35.5-601.1,337.3-560.5,679.7c17.8,154.7,111.6,319.6,225.7,408.3c53.2,43.1,98.9,111.6,129.3,195.3c25.4,71,88.8,175,142,230.8l96.4,101.4h-68.5c-129.3,0-393.1-98.9-519.9-197.8c-162.3-124.3-299.3-304.3-357.6-476.8l-45.6-137h-933.3c-730.4,0-933.3,7.6-933.3,33c0,65.9-152.2,347.5-240.9,443.8C1586.2,878.9,1167.7,990.5,784.8,868.8z M1421.3,422.4c311.9-192.7,380.4-621.4,144.6-897.8c-131.9-152.2-263.8-213-464.1-213c-639.1,0-842,849.6-273.9,1138.7C1015.6,544.2,1243.8,534,1421.3,422.4z M1342.7-3059.7c202.9-91.3,334.8-271.4,360.1-484.4c22.8-197.8-30.4-347.5-180.1-494.6c-251.1-248.5-565.6-256.1-826.8-20.3c-319.6,286.6-248.5,791.3,134.4,984C987.7-2996.3,1193.1-2991.2,1342.7-3059.7z"/><path d="M5167.2,802.8c-197.8-98.9-334.8-344.9-301.8-545.3c7.6-50.7,238.4-593.5,509.8-1204.7c271.4-611.2,494.6-1121,494.6-1133.6c0-10.2-48.2,7.6-109.1,43.1c-58.3,35.5-180.1,83.7-271.4,106.5c-137,35.5-185.1,35.5-301.8,10.2c-284-63.4-479.3-370.3-405.8-644.2c45.6-172.5,101.4-238.4,339.8-415.9c126.8-93.8,415.9-352.5,646.7-575.7c230.8-225.7,469.2-443.8,532.6-486.9c238.4-159.8,583.3-301.8,963.7-393.1c126.8-30.4,144.6-45.6,195.3-144.6c78.6-152.2,126.8-202.9,223.2-220.6c71-12.7,240.9,55.8,1095.6,431.1c656.8,291.7,1029.7,469.2,1067.7,512.3c71,78.6,71,175,2.5,332.2c-48.2,109.1-53.3,167.4-50.7,527.5c7.6,664.5-76.1,971.3-459.1,1711.9c-126.8,243.5-317,608.7-418.5,811.6C8710.2-67.1,8667.1-8.7,8520,59.7c-182.6,83.7-486.9,40.6-593.5-86.2c-17.7-25.4-48.2-43.1-65.9-43.1s-48.2,17.8-65.9,43.1c-20.3,22.8-81.2,60.8-137,86.2c-187.7,86.2-410.9,48.2-570.6-93.8l-98.9-88.8l-83.7,43.1c-134.4,73.6-362.7,63.4-507.2-22.8c-65.9-38-131.9-88.8-144.6-114.1c-20.3-35.5-33-22.8-81.1,83.7c-187.7,431.1-329.7,732.9-375.4,796.3C5679.5,825.7,5357.4,896.7,5167.2,802.8z M5458.9,419.9c30.4-25.4,235.9-461.6,461.6-971.3c225.7-509.8,426.1-951.1,446.3-981.5c81.2-129.3,329.7-116.7,426.1,20.3c71,104,50.7,223.2-111.6,580.8c-83.7,185.1-152.2,357.6-152.2,380.4c0,63.4,88.8,131.9,157.2,121.7c60.9-7.6,86.2-48.2,273.9-454c78.6-172.5,116.7-225.7,175-251.1c159.8-66,332.2,48.2,332.2,215.6c0,45.7-35.5,162.3-78.6,258.7c-114.1,251.1-98.9,362.7,53.3,362.7c88.8,0,106.5-20.3,238.4-317c136.9-304.3,182.6-355.1,322.1-355.1c86.2,0,116.7,15.2,177.5,83.7c86.2,96.4,91.3,162.3,20.3,324.6c-27.9,71-45.7,147.1-35.5,182.6c15.2,65.9,104,109.1,172.5,83.7c27.9-10.1,159.8-235.9,324.6-547.8c692.4-1329,707.6-1369.5,732.9-2143.1c10.2-299.3,25.4-568.1,35.5-596c15.2-48.2-58.3-86.2-801.4-415.9c-583.3-258.7-821.7-352.5-829.3-327.1c-5.1,17.8-50.7,73.5-104,121.7c-76.1,76.1-139.5,104-350,159.8c-565.5,147.1-806.5,281.5-1184.4,661.9c-360.1,360.1-565.6,547.8-791.3,717.8c-192.7,147.1-230.8,202.9-187.7,284c40.6,73.6,114.1,86.2,263.7,43.1c139.5-40.6,284.1-142,593.5-410.9c197.8-172.5,256.1-192.7,388-124.3c83.7,43.1,126.8,109.1,126.8,195.3c0,33-291.7,715.2-646.7,1516.6c-355.1,801.4-646.7,1476-646.7,1501.4c0,38,88.8,121.7,129.3,121.7C5400.6,463,5431,442.7,5458.9,419.9z"/><path d="M4474.9-2963.4c-200.4-109-319.6-235.9-426.1-451.4c-88.8-180.1-93.8-202.9-93.8-433.7s5.1-253.6,93.8-436.2c114.1-230.8,261.2-372.8,497.1-484.4c154.7-73.6,192.7-81.2,410.9-81.2c218.1,0,256.1,7.6,410.9,81.2c228.2,106.5,380.4,253.6,489.5,471.7c48.2,96.4,88.8,195.3,88.8,218.1c-2.5,22.8-98.9,144.5-215.6,268.8c-197.8,208-213,220.7-190.2,139.5c65.9-228.3,2.5-451.4-177.5-618.8c-139.5-131.9-281.5-180.1-471.7-159.8c-154.7,15.2-253.6,63.4-362.7,172.5c-131.9,131.9-167.4,218.1-167.4,428.6c0,210.5,35.5,296.7,167.4,428.6c131.9,134.4,218.1,167.4,436.2,167.4c106.5,0,195.3,2.5,195.3,2.5c0,2.6-78.6,55.8-172.5,121.7c-96.4,63.4-200.4,144.6-233.3,180.1C4677.7-2867,4644.8-2869.5,4474.9-2963.4z"/></g></g>
</svg>