<svg id="monetization_on-24px" xmlns="http://www.w3.org/2000/svg" xmlns:xlink="http://www.w3.org/1999/xlink" width="39.589" height="39.38" viewBox="0 0 39.589 39.38">
  <defs>
    <linearGradient id="linear-gradient" x1="0.5" x2="0.5" y2="1" gradientUnits="objectBoundingBox">
      <stop offset="0" stop-color="#0082ff"/>
      <stop offset="1" stop-color="#a3d3ff"/>
    </linearGradient>
  </defs>
  <path id="Path_188" data-name="Path 188" d="M0,0H39.589V39.38H0Z" fill="none"/>
  <path id="Path_189" data-name="Path 189" d="M19.795,2A17.69,17.69,0,1,0,37.589,19.69,17.749,17.749,0,0,0,19.795,2ZM22.3,30.463v3.379H17.552V30.428c-3.043-.637-5.623-2.583-5.819-6.015h3.488c.178,1.857,1.459,3.308,4.716,3.308,3.488,0,4.271-1.734,4.271-2.813,0-1.468-.783-2.848-4.751-3.786-4.413-1.061-7.438-2.866-7.438-6.492,0-3.043,2.473-5.024,5.534-5.679V5.538H22.3v3.45a6.263,6.263,0,0,1,5.071,6H23.887c-.089-1.964-1.139-3.308-3.95-3.308-2.669,0-4.271,1.2-4.271,2.9,0,1.486,1.157,2.459,4.751,3.379s7.438,2.459,7.438,6.917c-.018,3.237-2.456,5.006-5.552,5.59Z" transform="translate(0 0)" fill="url(#linear-gradient)"/>
</svg>
