<svg xmlns="http://www.w3.org/2000/svg" xmlns:xlink="http://www.w3.org/1999/xlink" width="35.612" height="35.257" viewBox="0 0 35.612 35.257">
  <defs>
    <linearGradient id="linear-gradient" x1="0.5" x2="0.5" y2="1" gradientUnits="objectBoundingBox">
      <stop offset="0" stop-color="#0082ff"/>
      <stop offset="1" stop-color="#a3d3ff"/>
    </linearGradient>
  </defs>
  <g id="orderList" transform="translate(-9.963 -9.381)" style="isolation: isolate">
    <path id="Path_190" data-name="Path 190" d="M42.45,15.759c-5.923-1.164-11.817-2.325-17.744-3.492-.084.212-.164.413-.24.618Q21.512,20.9,18.558,28.927a1.505,1.505,0,0,1-1.152,1.135,1.358,1.358,0,0,1-1.479-1.926c.418-1.164.858-2.321,1.286-3.481Q19.83,17.568,22.435,10.5a1.453,1.453,0,0,1,1.9-1.063Q34.3,11.392,44.26,13.352a1.391,1.391,0,0,1,1.21,1.955c-2.369,7.247-4.778,14.483-7.62,21.571a21.543,21.543,0,0,1-2.376,4.545,7.358,7.358,0,0,1-5.883,3.2,8.637,8.637,0,0,1-4.106-.816c-3.757-1.674-7.5-3.381-11.265-5.041a7.275,7.275,0,0,1-2.871-2.041,6.636,6.636,0,0,1-1.374-4.649c.033-.675.156-1.344.247-2.062.4.162.73.287,1.065.424q7.08,2.829,14.164,5.648c.36.144.516.3.5.711a7.1,7.1,0,0,0,.461,2.889,3.3,3.3,0,0,0,3.761,2.145A4.789,4.789,0,0,0,33.616,39.3,29.922,29.922,0,0,0,35.978,34.2c2.158-5.583,4.084-11.253,5.97-16.933.164-.492.327-.984.5-1.513" transform="translate(0 0)" fill="url(#linear-gradient)"/>
    <path id="Path_193" data-name="Path 193" d="M5.788,2.48c-.525-.1-1.275-.242-2.027-.384-.948-.179-1.9-.354-2.843-.54C.063,1.387-.267.791.24.313a1.188,1.188,0,0,1,1.008-.3c.771.121,1.529.269,2.291.413C4.468.6,5.4.774,6.325.96c.7.14,1.032.536.843,1-.135.338-.627.571-1.38.519" transform="matrix(0.999, 0.052, -0.052, 0.999, 31.423, 17.134)" fill="url(#linear-gradient)"/>
    <path id="Path_196" data-name="Path 196" d="M420.672,221.95a1.182,1.182,0,0,1-1.191-1.21,1.1,1.1,0,0,1,1.111-1.144,1.162,1.162,0,0,1,1.182,1.21,1.094,1.094,0,0,1-1.1,1.144" transform="translate(-392.696 -204.147)" fill="url(#linear-gradient)"/>
    <path id="Path_206" data-name="Path 206" d="M420.672,221.95a1.182,1.182,0,0,1-1.191-1.21,1.1,1.1,0,0,1,1.111-1.144,1.162,1.162,0,0,1,1.182,1.21,1.094,1.094,0,0,1-1.1,1.144" transform="translate(-394.731 -200.118)" fill="url(#linear-gradient)"/>
    <path id="Path_207" data-name="Path 207" d="M420.672,221.95a1.182,1.182,0,0,1-1.191-1.21,1.1,1.1,0,0,1,1.111-1.144,1.162,1.162,0,0,1,1.182,1.21,1.094,1.094,0,0,1-1.1,1.144" transform="translate(-396.766 -196.088)" fill="url(#linear-gradient)"/>
    <path id="Path_208" data-name="Path 208" d="M5.788,2.48c-.525-.1-1.275-.242-2.027-.384-.948-.179-1.9-.354-2.843-.54C.063,1.387-.267.791.24.313a1.188,1.188,0,0,1,1.008-.3c.771.121,1.529.269,2.291.413C4.468.6,5.4.774,6.325.96c.7.14,1.032.536.843,1-.135.338-.627.571-1.38.519" transform="matrix(0.999, 0.052, -0.052, 0.999, 29.379, 21.166)" fill="url(#linear-gradient)"/>
    <path id="Path_209" data-name="Path 209" d="M5.788,2.48c-.525-.1-1.275-.242-2.027-.384-.948-.179-1.9-.354-2.843-.54C.063,1.387-.267.791.24.313a1.188,1.188,0,0,1,1.008-.3c.771.121,1.529.269,2.291.413C4.468.6,5.4.774,6.325.96c.7.14,1.032.536.843,1-.135.338-.627.571-1.38.519" transform="matrix(0.999, 0.052, -0.052, 0.999, 27.335, 25.198)" fill="url(#linear-gradient)"/>
  </g>
</svg>
