<svg xmlns="http://www.w3.org/2000/svg" xmlns:xlink="http://www.w3.org/1999/xlink" width="39" height="41" viewBox="0 0 39 41">
  <defs>
    <linearGradient id="linear-gradient" x1="0.5" x2="0.5" y2="1" gradientUnits="objectBoundingBox">
      <stop offset="0" stop-color="#0082ff"/>
      <stop offset="1" stop-color="#a3d3ff"/>
    </linearGradient>
  </defs>
  <g id="storefront-24px" transform="translate(-0.064 -0.159)">
    <g id="Group_187" data-name="Group 187" transform="translate(0.064 0.159)">
      <rect id="Rectangle_455" data-name="Rectangle 455" width="39" height="41" fill="none"/>
    </g>
    <g id="Group_189" data-name="Group 189" transform="translate(2.005 3)">
      <g id="Group_188" data-name="Group 188">
        <path id="Path_204" data-name="Path 204" d="M37.385,14.621,35.518,6a3.591,3.591,0,0,0-3.4-3H7.42A3.592,3.592,0,0,0,4.041,6L2.174,14.621a7.232,7.232,0,0,0,1.1,5.682,7.278,7.278,0,0,0,.5.572V34.569a3.778,3.778,0,0,0,3.557,3.946h24.9a3.778,3.778,0,0,0,3.557-3.946V20.876a6.982,6.982,0,0,0,.5-.552A7.207,7.207,0,0,0,37.385,14.621ZM32.068,6.926l1.867,8.622a2.905,2.905,0,0,1-.445,2.308,2.037,2.037,0,0,1-1.672.927,2.334,2.334,0,0,1-2.152-2.249L28.635,6.946Zm-10.51.02h3.486L26,15.864a2.85,2.85,0,0,1-.587,2.111,2.034,2.034,0,0,1-1.689.809,2.414,2.414,0,0,1-2.17-2.585Zm-8.02,8.918.978-8.918H18V16.2a2.425,2.425,0,0,1-2.294,2.585,2.058,2.058,0,0,1-1.583-.809A3.014,3.014,0,0,1,13.537,15.864Zm-7.914-.316,1.8-8.6h3.5L9.892,16.535A2.347,2.347,0,0,1,7.74,18.785a2,2,0,0,1-1.654-.927A2.829,2.829,0,0,1,5.624,15.549Zm1.707,19.02v-11.9a2.919,2.919,0,0,0,.409.059,5.314,5.314,0,0,0,3.983-1.874,5.449,5.449,0,0,0,4.108,1.874A5.376,5.376,0,0,0,19.8,20.9a5.547,5.547,0,0,0,4.072,1.835,5.389,5.389,0,0,0,3.983-1.874,5.314,5.314,0,0,0,3.983,1.874,2.919,2.919,0,0,0,.409-.059v11.9Z" transform="translate(-2.005 -3)" fill="url(#linear-gradient)"/>
      </g>
    </g>
  </g>
</svg>
