<svg id="success-green-check-mark" xmlns="http://www.w3.org/2000/svg" xmlns:xlink="http://www.w3.org/1999/xlink" width="35.493" height="35.296" viewBox="0 0 35.493 35.296">
  <defs>
    <linearGradient id="linear-gradient" x1="0.5" x2="0.5" y2="1" gradientUnits="objectBoundingBox">
      <stop offset="0" stop-color="#0082ff"/>
      <stop offset="1" stop-color="#a3d3ff"/>
    </linearGradient>
  </defs>
  <path id="Path_205" data-name="Path 205" d="M17.745,0A17.77,17.77,0,0,1,25.43,1.736c-.953.75-1.836,1.469-2.659,2.162A14.785,14.785,0,0,0,7.35,7.307a14.565,14.565,0,0,0,0,20.682,14.76,14.76,0,0,0,20.8,0,14.587,14.587,0,0,0,4.037-13.151q1.144-1.484,2.343-2.953A17.6,17.6,0,0,1,30.3,30.127a17.814,17.814,0,0,1-25.1,0,17.576,17.576,0,0,1,0-24.958A17.742,17.742,0,0,1,17.745,0ZM9.479,14.749l4.329-.057.323.084A16.7,16.7,0,0,1,16.6,16.5a16.9,16.9,0,0,1,1.589,1.529,62.1,62.1,0,0,1,4.956-6.866,58.959,58.959,0,0,1,6.081-6.29l.422-.162h4.724L33.416,5.76a100.5,100.5,0,0,0-7.983,10.026,97.628,97.628,0,0,0-6.455,10.68l-.594,1.139-.546-1.16a28.144,28.144,0,0,0-3.651-5.886A23.856,23.856,0,0,0,9.126,15.9l.353-1.151Z" transform="translate(0 0)" fill="url(#linear-gradient)"/>
</svg>
