<svg id="success-green-check-mark" xmlns="http://www.w3.org/2000/svg" xmlns:xlink="http://www.w3.org/1999/xlink" width="35.598" height="35.477" viewBox="0 0 35.598 35.477">
  <defs>
    <linearGradient id="linear-gradient" x1="0.5" x2="0.5" y2="1" gradientUnits="objectBoundingBox">
      <stop offset="0" stop-color="#01a601"/>
      <stop offset="1" stop-color="#81ff81"/>
    </linearGradient>
  </defs>
  <path id="Path_205" data-name="Path 205" d="M17.8,0A17.79,17.79,0,0,1,25.5,1.745c-.955.753-1.841,1.477-2.667,2.173a14.674,14.674,0,1,0,9.44,11q1.147-1.492,2.349-2.968A17.795,17.795,0,0,1,5.216,30.281,17.737,17.737,0,0,1,17.8,0ZM9.506,14.824l4.342-.057.324.084a16.75,16.75,0,0,1,2.473,1.73,16.962,16.962,0,0,1,1.593,1.537,62.41,62.41,0,0,1,4.971-6.9,59.2,59.2,0,0,1,6.1-6.323l.423-.163H34.47l-.955,1.058a100.975,100.975,0,0,0-8.007,10.078A98.171,98.171,0,0,0,19.034,26.6l-.6,1.145-.547-1.166a28.3,28.3,0,0,0-3.662-5.916,23.946,23.946,0,0,0-5.077-4.683l.354-1.157Z" fill="url(#linear-gradient)"/>
</svg>
